<?xml version="1.0" standalone="no"?>
<!DOCTYPE svg PUBLIC "-//W3C//DTD SVG 20010904//EN"
 "http://www.w3.org/TR/2001/REC-SVG-20010904/DTD/svg10.dtd">
<svg version="1.0" xmlns="http://www.w3.org/2000/svg"
 width="529.000000pt" height="529.000000pt" viewBox="0 0 529.000000 529.000000"
 preserveAspectRatio="xMidYMid meet">
<metadata>
Created by potrace 1.11, written by Peter Selinger 2001-2013
</metadata>
<g transform="translate(0.000000,529.000000) scale(0.100000,-0.100000)"
fill="#000000" stroke="none">
<path d="M0 5228 l1 -63 40 45 c67 76 68 80 9 80 l-50 0 0 -62z"/>
<path d="M4565 5280 c-4 -7 -90 -8 -261 -4 l-254 7 6 -34 c12 -61 110 -231
144 -249 10 -6 40 -10 65 -10 45 0 51 4 152 93 94 83 111 94 171 109 106 28
369 24 552 -8 31 -6 20 -10 -90 -39 -69 -18 -163 -49 -210 -68 -47 -19 -119
-45 -160 -58 -41 -12 -93 -30 -115 -40 -22 -10 -78 -20 -125 -23 -47 -4 -141
-10 -210 -15 -69 -4 -147 -13 -175 -20 -27 -6 -97 -20 -154 -31 -57 -12 -129
-32 -161 -45 -31 -13 -84 -28 -116 -34 -33 -5 -68 -13 -79 -17 -18 -7 -19 -6
-6 10 14 16 11 17 -29 14 -38 -3 -48 -8 -67 -37 -13 -19 -23 -49 -23 -67 0
-27 -8 -38 -47 -68 -27 -20 -70 -54 -98 -76 -30 -24 -84 -52 -140 -72 -131
-47 -162 -79 -210 -216 -20 -59 -66 -166 -101 -238 -64 -131 -86 -195 -99
-291 -7 -52 -6 -53 19 -53 24 0 26 -3 24 -37 l-1 -38 -4 33 -4 34 -52 -7 c-29
-4 -69 -13 -90 -20 -31 -11 -48 -11 -98 1 -60 14 -172 65 -184 84 -9 15 -25
12 -25 -4 0 -27 -20 -28 -65 -1 l-45 26 31 -83 c70 -188 69 -182 69 -334 0
-193 16 -268 86 -413 l58 -116 4 -152 c5 -169 5 -169 -84 -296 -19 -26 -34
-49 -34 -52 0 -3 48 -4 108 -3 l107 3 35 72 c19 40 38 73 42 73 10 0 27 -65
44 -172 16 -100 25 -122 55 -139 43 -22 49 -7 49 112 0 107 1 115 31 167 17
30 37 82 44 116 l13 61 1 -94 c1 -151 40 -265 126 -366 23 -27 66 -84 95 -125
29 -41 65 -87 78 -102 25 -27 26 -27 39 -8 21 30 51 24 86 -15 17 -19 34 -35
39 -35 4 0 8 84 8 188 0 224 -18 303 -119 541 -17 40 -34 98 -38 129 -6 51 -5
55 13 49 17 -6 17 -6 3 5 -9 8 -12 17 -7 23 4 6 17 21 27 35 11 14 22 22 26
18 4 -4 10 -45 12 -92 7 -100 22 -122 82 -117 15 1 12 142 -9 386 -6 77 -10
221 -8 320 3 150 7 186 22 217 11 20 28 39 40 42 12 3 118 6 236 6 l215 1 -35
29 -35 30 35 -6 35 -6 -29 16 c-15 9 -37 16 -49 16 -24 0 -100 56 -179 133
l-58 55 0 71 c0 67 1 71 28 85 15 8 49 32 75 53 25 21 72 47 104 57 63 20 218
34 212 20 -2 -5 -19 -40 -38 -79 -23 -46 -36 -89 -39 -125 -4 -52 -2 -57 33
-92 20 -20 50 -42 66 -48 16 -7 29 -16 29 -21 0 -21 76 -59 120 -59 25 -1 74
-7 110 -14 52 -10 60 -14 43 -20 -31 -10 -29 -34 3 -42 72 -18 138 16 187 96
11 19 31 48 44 63 27 33 31 107 8 147 -8 14 -14 40 -15 58 0 41 -13 67 -53
110 -19 19 -25 32 -17 32 10 0 11 3 3 11 -6 6 -59 16 -119 24 -60 7 -99 13
-88 14 12 1 28 8 35 17 20 24 85 13 168 -29 39 -20 103 -46 143 -57 91 -27
148 -60 213 -122 47 -45 48 -48 25 -49 l-25 -1 26 -11 c21 -10 24 -17 19 -42
-10 -45 -23 -65 -77 -115 l-48 -45 45 48 c63 67 26 63 -48 -6 -31 -29 -111
-85 -177 -124 l-120 -71 -271 -7 c-149 -4 -277 -11 -284 -15 -15 -9 -4 -30 16
-30 8 0 14 -6 14 -14 0 -7 12 -26 26 -41 l25 -27 124 4 c80 2 128 8 139 17 8
7 19 10 24 7 4 -2 52 -12 105 -20 103 -17 482 -23 473 -8 -3 5 -66 19 -142 32
-131 24 -135 25 -104 38 17 7 63 19 101 26 67 13 119 43 119 70 0 6 36 31 79
55 78 43 161 124 161 158 0 8 5 11 10 8 11 -7 14 -64 4 -89 -3 -9 -11 -13 -18
-9 -6 3 -8 2 -3 -2 12 -14 49 -16 81 -5 16 5 73 40 128 76 l98 65 0 179 0 178
-47 10 c-27 6 -147 29 -268 53 -121 23 -238 50 -260 61 l-40 18 80 -6 c79 -5
189 -20 233 -31 12 -3 22 -1 22 5 0 5 -36 20 -80 31 -70 19 -95 21 -189 15
l-109 -7 -45 37 c-62 51 -196 103 -296 115 -49 6 -215 9 -414 6 -234 -4 -323
-2 -302 5 17 6 98 15 180 20 207 13 339 36 413 74 46 23 152 53 252 71 52 9
140 25 194 36 78 15 143 19 311 19 246 0 302 -11 312 -60 3 -16 16 -39 29 -51
l24 -22 0 311 0 312 -359 0 c-236 0 -362 -4 -366 -10z m-1148 -657 c-3 -3 -11
-2 -17 2 -8 5 -7 11 2 22 12 15 13 14 16 -1 2 -10 1 -20 -1 -23z m998 -162
c42 -20 189 -161 167 -161 -18 0 -78 34 -142 80 -30 22 -85 51 -122 66 -38 14
-68 28 -68 30 0 13 130 1 165 -15z m225 -128 c0 -7 -39 17 -46 28 -3 6 5 3 20
-6 14 -10 26 -19 26 -22z m70 -39 c0 -2 -13 2 -30 11 -16 9 -30 18 -30 21 0 2
14 -2 30 -11 17 -9 30 -18 30 -21z m56 -35 c3 -6 -5 -3 -20 6 -14 10 -26 19
-26 22 0 7 39 -17 46 -28z m-686 -83 c0 -2 -12 -11 -26 -21 -25 -16 -25 -16
-14 4 9 17 40 30 40 17z m1085 -59 c11 -3 -1 -5 -26 -6 -32 -1 -49 4 -52 13
-5 11 1 12 26 6 18 -5 41 -11 52 -13z m-1774 -14 c-10 -16 -40 -48 -66 -73
-25 -25 -69 -75 -97 -112 -42 -57 -55 -68 -79 -68 -25 0 -29 4 -29 26 0 14 9
37 19 50 22 29 249 204 263 204 5 0 0 -12 -11 -27z m-89 -215 c-17 -21 -72
-50 -72 -38 0 10 58 50 74 50 5 0 4 -6 -2 -12z m-110 -91 c-24 -24 -39 -56
-55 -113 l-22 -79 -3 70 c-3 65 -1 71 23 90 14 11 38 30 53 42 39 32 41 28 4
-10z m-301 -161 c-14 -36 -22 -33 -9 5 6 16 12 28 14 26 3 -2 0 -16 -5 -31z
m1796 -2 c-3 -3 -12 -4 -19 -1 -8 3 -5 6 6 6 11 1 17 -2 13 -5z m-1938 -63
c-9 -26 -8 -35 5 -50 14 -15 16 -36 14 -112 l-3 -94 -22 102 c-21 96 -21 104
-7 148 9 25 18 44 20 42 2 -2 -1 -18 -7 -36z m1568 -7 c-3 -3 -12 -4 -19 -1
-8 3 -5 6 6 6 11 1 17 -2 13 -5z m-1450 -906 c-3 -8 -6 -5 -6 6 -1 11 2 17 5
13 3 -3 4 -12 1 -19z"/>
<path d="M230 5189 c-19 -6 -79 -24 -133 -41 l-97 -32 0 -138 0 -138 211 0
c198 0 211 -1 216 -19 5 -21 43 -41 77 -41 18 0 27 -10 40 -44 29 -77 52 -95
210 -173 83 -40 138 -71 121 -68 -16 3 -63 8 -103 12 -56 4 -70 8 -62 18 6 7
8 20 4 29 -5 14 -30 16 -198 16 -182 0 -194 -2 -251 -26 -33 -14 -94 -37 -135
-51 -41 -14 -87 -30 -103 -35 l-27 -10 0 -190 0 -189 28 -35 c15 -20 66 -62
114 -95 47 -32 89 -63 93 -69 14 -23 -163 106 -197 144 l-38 41 0 -51 c0 -41
5 -55 25 -74 40 -37 78 -98 71 -115 -4 -10 -19 -15 -51 -15 -41 0 -45 -2 -45
-24 0 -21 7 -26 50 -35 59 -13 191 -64 315 -122 75 -35 103 -43 165 -46 81 -4
110 9 124 55 7 21 9 21 29 7 37 -26 171 -20 252 11 80 30 119 29 123 -3 4 -28
-22 -42 -112 -58 -39 -7 -84 -18 -101 -23 -16 -6 -63 -21 -103 -33 -82 -26
-80 -28 42 -53 43 -9 126 -16 194 -16 109 0 126 3 214 34 53 19 140 44 194 55
55 12 128 27 164 35 36 7 107 33 157 57 51 23 96 39 100 35 4 -4 9 -35 11 -70
4 -59 2 -65 -28 -100 -18 -20 -53 -51 -76 -67 -61 -42 -106 -111 -112 -171 -3
-37 -1 -49 11 -54 24 -9 84 24 134 75 53 53 53 52 -45 -100 -40 -63 -108 -169
-151 -236 -43 -67 -81 -119 -85 -116 -3 3 -6 -1 -6 -11 0 -9 4 -14 10 -11 6 4
10 -5 10 -19 0 -33 11 -33 49 0 23 19 39 25 68 22 l38 -3 7 -65 c18 -173 30
-387 35 -605 6 -266 6 -268 71 -280 91 -17 119 -48 172 -185 11 -30 34 -71 50
-90 29 -33 30 -34 30 -10 0 14 11 49 25 78 21 45 25 69 25 142 0 101 5 111 85
163 73 47 105 114 105 219 0 69 -3 84 -27 120 -28 41 -28 43 -28 212 0 94 6
235 14 314 17 176 10 530 -12 608 -8 28 -30 80 -50 115 -79 142 -117 308 -117
513 0 172 -11 202 -84 237 -22 10 -77 51 -121 90 -145 129 -317 235 -479 294
-98 37 -107 48 -11 15 32 -11 69 -20 82 -20 21 0 23 4 23 55 0 64 -12 75 -100
95 -30 7 -74 22 -99 33 l-45 20 30 23 29 24 -37 0 c-42 0 -185 60 -298 124
-83 48 -175 83 -323 121 -78 20 -120 25 -210 24 -61 0 -128 -5 -147 -10z m813
-426 c-7 -2 -19 -2 -25 0 -7 3 -2 5 12 5 14 0 19 -2 13 -5z m107 -13 l25 -8
-25 0 c-14 0 -38 4 -55 8 l-30 8 30 0 c17 0 41 -4 55 -8z m75 -20 c13 -5 14
-9 5 -9 -8 0 -24 4 -35 9 -13 5 -14 9 -5 9 8 0 24 -4 35 -9z m-187 -319 c37
-16 90 -37 117 -46 28 -10 66 -33 85 -50 24 -22 49 -35 80 -39 72 -11 90 -28
90 -85 0 -30 5 -51 12 -53 9 -3 8 -16 -7 -49 -35 -80 -64 -119 -88 -119 -12 0
-39 -11 -58 -24 -20 -14 -62 -34 -93 -45 -53 -18 -67 -17 -47 5 9 9 16 64 27
210 6 68 4 77 -35 166 l-42 95 -170 7 c-169 7 -171 7 -213 -18 -23 -13 -58
-27 -78 -31 -19 -4 -52 -20 -72 -37 l-36 -29 1 -90 2 -89 51 -69 c32 -44 64
-76 86 -86 l35 -16 -65 6 c-36 2 -105 8 -155 11 -101 8 -123 16 -179 71 -55
53 -76 106 -78 195 -1 40 -5 78 -10 84 -6 8 9 14 49 20 32 4 63 7 70 5 16 -2
86 34 102 53 8 9 21 16 30 16 9 0 30 9 48 20 55 33 92 38 286 39 187 1 189 1
255 -28z m570 -78 c-10 -2 -26 -2 -35 0 -10 3 -2 5 17 5 19 0 27 -2 18 -5z
m89 -42 c55 -45 119 -103 89 -81 -12 8 -34 26 -51 41 -16 15 -48 39 -69 53
-21 14 -34 26 -28 26 5 0 32 -18 59 -39z m-1077 -24 c0 -2 -9 -12 -20 -22 -19
-18 -20 -17 -20 3 0 15 6 22 20 22 11 0 20 -2 20 -3z m315 -357 c-3 -5 -16
-10 -28 -9 -21 0 -21 1 -2 9 28 12 37 12 30 0z m944 -406 c-18 -46 -34 -82
-35 -81 -5 5 23 105 43 153 33 80 26 15 -8 -72z"/>
<path d="M5170 4707 c0 -8 14 -34 32 -58 18 -24 45 -66 60 -94 l28 -50 0 72 0
71 -42 36 c-42 37 -78 47 -78 23z"/>
<path d="M5025 4372 c9 -9 242 -92 259 -92 3 0 6 17 6 38 l0 37 -56 -4 c-50
-3 -137 8 -199 26 -13 3 -17 2 -10 -5z"/>
<path d="M3858 3658 c8 -8 148 -38 180 -38 36 0 -1 12 -92 29 -54 10 -93 14
-88 9z"/>
<path d="M5255 2709 c-16 -11 -61 -36 -100 -56 -38 -19 -93 -51 -121 -69 -28
-19 -97 -57 -153 -86 l-103 -53 -24 -64 c-35 -93 -32 -155 11 -251 32 -72 35
-85 35 -175 0 -53 -10 -154 -22 -224 -19 -113 -20 -136 -9 -221 20 -165 22
-158 -68 -247 -124 -123 -124 -124 -132 -403 -7 -255 -11 -274 -82 -476 -19
-56 -49 -157 -66 -226 -17 -69 -33 -132 -37 -141 -5 -15 6 -17 117 -17 l124 1
27 42 c15 23 103 121 195 218 172 181 206 226 379 509 l64 105 0 928 c0 510
-1 927 -2 927 -2 0 -16 -9 -33 -21z"/>
<path d="M2972 1598 c-18 -6 -43 -22 -55 -36 -104 -117 -108 -120 -192 -141
-77 -18 -111 -31 -185 -71 -25 -14 -56 -19 -112 -20 -82 0 -95 -9 -53 -36 14
-9 22 -20 20 -25 -6 -8 70 -69 87 -69 4 0 8 7 8 15 0 21 17 19 51 -6 33 -23
37 -36 12 -42 -10 -3 53 -5 139 -6 152 -1 158 -2 172 -23 27 -41 29 -98 7
-182 -22 -84 -29 -236 -11 -236 6 0 10 -4 10 -8 0 -8 -275 -32 -361 -32 -25 0
-79 9 -120 20 -57 15 -107 20 -214 20 l-141 0 -109 -55 -110 -55 -110 0 c-177
0 -279 23 -404 91 -30 16 -64 29 -75 29 -39 0 -96 -21 -123 -45 l-28 -24 55
-1 c71 0 264 -52 360 -97 41 -19 125 -52 186 -73 118 -40 149 -54 176 -77 13
-12 32 -14 85 -9 37 3 203 10 368 15 300 10 374 19 459 55 39 16 135 21 169 7
17 -6 16 -8 -7 -19 -19 -8 -26 -19 -26 -40 0 -53 -44 -60 -610 -91 -309 -17
-497 -31 -485 -36 11 -5 36 -18 55 -30 20 -13 68 -33 109 -46 68 -22 71 -24
43 -31 -25 -7 -30 -14 -36 -48 -3 -23 -13 -43 -21 -46 -10 -4 -15 -20 -15 -50
l0 -44 1079 0 1079 0 -40 113 c-21 61 -46 119 -54 127 -12 12 -53 16 -214 18
-184 3 -200 5 -200 21 0 10 10 26 21 37 26 22 139 254 139 283 0 24 -27 40
-67 42 -23 1 -21 3 12 9 22 4 79 18 127 30 l87 23 58 -44 c110 -85 133 -90
133 -30 0 33 -6 44 -41 75 -47 43 -76 56 -127 56 -20 0 -46 7 -56 15 -29 22
-63 19 -71 -6 -9 -27 -35 -36 -140 -44 -50 -4 -115 -16 -145 -26 -30 -10 -62
-19 -71 -19 -21 0 -150 -85 -142 -94 3 -3 1 -6 -5 -6 -5 0 -19 -3 -29 -6 -15
-5 -15 -4 -3 4 12 9 10 13 -11 21 -15 5 -55 15 -90 22 -35 6 -80 20 -99 30
l-35 18 87 1 c102 0 191 25 351 97 97 44 107 47 217 53 93 4 120 9 142 25 69
52 77 135 13 135 -23 0 -90 65 -150 145 -20 27 -52 67 -71 89 l-33 39 -61 -6
c-33 -3 -72 -13 -87 -22 -20 -14 -38 -16 -80 -11 -72 8 -108 28 -138 76 -36
57 -53 54 -95 -17 -11 -18 -25 -33 -31 -33 -6 0 -29 17 -50 39 -38 37 -39 41
-39 105 0 75 12 106 39 106 10 0 36 12 57 26 21 15 50 30 64 34 33 9 38 36 8
43 -51 13 -175 16 -206 5z m-478 -343 c-8 -19 -31 -19 -64 0 -24 14 -24 14 22
15 38 0 46 -3 42 -15z m1149 -622 c-7 -2 -19 -2 -25 0 -7 3 -2 5 12 5 14 0 19
-2 13 -5z m-420 -70 c-7 -2 -21 -2 -30 0 -10 3 -4 5 12 5 17 0 24 -2 18 -5z
m-78 -51 l-28 -27 24 31 c13 17 26 30 28 27 3 -2 -8 -16 -24 -31z m-952 -368
c61 -19 60 -34 -3 -33 -27 0 -41 7 -60 32 -15 19 -19 29 -10 25 8 -3 41 -14
73 -24z"/>
<path d="M0 753 c0 -132 3 -355 7 -496 l6 -257 205 0 204 0 -7 28 c-3 15 -25
72 -47 127 -60 150 -136 352 -159 423 -43 135 -126 305 -191 391 -17 23 -18
17 -18 -216z"/>
<path d="M1020 653 c0 -5 4 -14 8 -21 7 -9 13 -8 27 8 18 20 18 20 -8 20 -15
0 -27 -3 -27 -7z"/>
<path d="M5195 557 c-49 -43 -117 -100 -150 -127 -57 -46 -120 -114 -305 -330
l-82 -95 313 -3 c171 -1 314 -1 316 1 2 2 2 145 1 318 l-3 315 -90 -79z"/>
</g>
</svg>
